<svg xmlns="http://www.w3.org/2000/svg" xmlns:xlink="http://www.w3.org/1999/xlink" width="200" zoomAndPan="magnify" viewBox="0 0 150 149.999998" height="200" preserveAspectRatio="xMidYMid meet" version="1.0"><defs><clipPath id="25155e8da4"><path d="M 0 6.136719 L 150 6.136719 L 150 144 L 0 144 Z M 0 6.136719 " clip-rule="nonzero"/></clipPath></defs><path fill="#0072bb" d="M 75 34.953125 C 94.640625 34.953125 110.5625 50.875 110.5625 70.515625 C 110.5625 90.160156 94.640625 106.082031 75 106.082031 L 39.871094 106.082031 C 44.019531 103.289062 47.777344 100.234375 51.257812 97 L 51.273438 97.011719 C 44.003906 90.503906 39.4375 81.050781 39.4375 70.515625 C 39.4375 50.875 55.359375 34.953125 75 34.953125 Z M 75 34.953125 " fill-opacity="1" fill-rule="evenodd"/><g clip-path="url(#25155e8da4)"><path fill="#000000" d="M 18.320312 40.15625 L 17.375 40.15625 C 7.820312 40.15625 0 47.976562 0 57.53125 L 0 74.375 C 0 83.960938 7.855469 91.753906 17.375 91.753906 L 26.964844 91.753906 C 24.089844 85.257812 22.492188 78.070312 22.492188 70.511719 C 22.492188 41.609375 45.902344 18 75 18 C 104.097656 18 127.511719 41.605469 127.511719 70.511719 C 127.511719 78.070312 125.917969 85.253906 123.039062 91.753906 C 116.574219 106.363281 103.632812 117.464844 87.863281 121.4375 C 85.289062 117.007812 80.492188 114.03125 75 114.03125 C 66.796875 114.03125 60.136719 120.683594 60.136719 128.898438 C 60.136719 137.105469 66.796875 143.757812 75 143.757812 C 81.703125 143.757812 87.375 139.320312 89.222656 133.21875 C 111.023438 128.296875 128.621094 112.308594 135.796875 91.457031 C 143.851562 89.957031 150 82.847656 150 74.375 L 150 57.53125 C 150 47.976562 142.179688 40.15625 132.625 40.15625 L 131.679688 40.15625 C 120.84375 19.964844 99.523438 6.234375 75 6.234375 C 50.476562 6.234375 29.15625 19.964844 18.316406 40.15625 Z M 18.320312 40.15625 " fill-opacity="1" fill-rule="evenodd"/></g></svg>