<svg width="720" height="443" viewBox="0 0 720 443" fill="none" xmlns="http://www.w3.org/2000/svg">
<path d="M211.642 265.109H135.747C134.201 265.109 132.947 263.811 132.947 262.21V161.913C132.947 160.313 134.201 159.015 135.747 159.015H211.642C213.189 159.015 214.442 160.313 214.442 161.913V262.21C214.442 263.811 213.189 265.109 211.642 265.109Z" fill="#044066"/>
<path d="M632.713 156.993C632.713 156.993 637.445 151.605 647.176 158.695C656.907 165.785 649.455 191.993 649.455 191.993L630.189 187.003L632.713 156.993Z" fill="black"/>
<path d="M606.68 326.558L609.657 343.391L619.9 349.579L629.358 346.114L627.843 326.558H606.68Z" fill="#F27E64"/>
<path d="M630.615 346.887L625.329 357.757L621.985 364.641C621.985 364.641 589.007 365.99 587.335 364.641C585.663 363.293 585.663 359.476 587.335 357.898C589.007 356.327 608.627 344.864 608.627 344.864C608.627 344.864 608.627 341.715 609.848 341.412C611.076 341.108 619.204 344.864 619.204 344.864L628.692 341.398L630.615 346.887Z" fill="#044066"/>
<path d="M625.328 357.757L621.984 364.641C621.984 364.641 589.006 365.99 587.334 364.641C585.662 363.293 585.662 359.476 587.334 357.898C587.334 357.898 609.967 359.699 622.554 357.898C623.744 357.73 624.652 357.689 625.328 357.757Z" fill="#0072BB"/>
<path d="M627.707 328.621L629.823 346.114H645.473L646.133 328.621H627.707Z" fill="#FF9280"/>
<path d="M650.233 361.722C650.233 363.67 649.124 366.368 645.223 367.264C641.327 368.168 620.95 367.264 620.317 366.516C619.979 366.125 619.766 364.533 619.641 363.104C619.503 361.587 619.854 360.056 620.63 358.782L628.972 345.087C628.972 345.087 631.27 342.545 635.741 342.99C640.213 343.441 642.455 345.087 642.455 345.087C642.455 345.087 644.527 342.828 645.504 343.583C646.312 344.21 649.03 354.931 649.938 359.685C650.126 360.663 650.233 361.391 650.233 361.722Z" fill="#044066"/>
<path d="M610.517 227.542C610.517 227.542 604.65 253.715 602.189 275.884C599.729 298.052 598.447 334.036 600.114 335.383C601.78 336.73 621.28 338.483 621.28 338.483C621.28 338.483 627.862 341.565 639.207 341.254C647.44 341.029 654.126 338.708 654.126 338.708C654.126 338.708 652.405 242.972 646.133 227.723C641.225 215.789 610.517 227.542 610.517 227.542Z" fill="#0D1317"/>
<path d="M609.774 228.158C609.774 228.158 622.107 231.2 632.228 230.418C642.35 229.635 646.133 227.723 646.133 227.723V209.946L637.503 181.527L621.852 182.439L612.207 201.323L609.774 228.158Z" fill="#0072BB"/>
<path d="M634.922 173.981L634.741 181.746C634.741 181.746 633.389 183.943 629.161 184.198C626.012 184.388 625.058 182.624 625.058 182.624L625.977 175.849L633.637 174.251L634.922 173.981Z" fill="#FF9280"/>
<path d="M634.923 173.507C634.899 173.719 634.819 173.967 634.696 174.251C632.991 178.086 627.275 179.547 625.456 179.673L625.977 175.849L634.923 173.507Z" fill="black"/>
<path d="M624.782 158.107C624.782 158.107 620.77 167.74 622.136 173.189C623.502 178.639 628.108 177.831 630.869 176.809C633.63 175.786 634.923 173.982 634.923 173.982C634.923 173.982 637.485 174.947 639.227 172.392C640.969 169.836 639.937 166.87 638.476 166.177C637.014 165.485 635.259 166.608 635.259 166.608L636.652 163.81C636.652 163.811 631.024 149.464 624.782 158.107Z" fill="#FF9280"/>
<path d="M625.087 170.36C624.977 170.36 624.874 170.285 624.841 170.169C624.259 168.123 625.606 166.042 625.663 165.955C625.742 165.832 625.905 165.803 626.02 165.884C626.137 165.967 626.168 166.133 626.087 166.254C626.075 166.273 624.821 168.217 625.334 170.019C625.374 170.16 625.297 170.308 625.16 170.35C625.135 170.357 625.111 170.36 625.087 170.36Z" fill="black"/>
<path d="M635.629 171.104C635.567 171.104 635.505 171.081 635.456 171.035C635.351 170.936 635.344 170.767 635.439 170.659L637.887 167.882C637.983 167.773 638.146 167.765 638.251 167.865C638.355 167.964 638.362 168.132 638.267 168.24L635.819 171.017C635.768 171.075 635.699 171.104 635.629 171.104Z" fill="black"/>
<path d="M638.215 170.366C638.174 170.363 636.487 170.082 636.487 170.082C636.347 170.059 636.252 169.922 636.274 169.777C636.297 169.632 636.428 169.531 636.568 169.557L638.256 169.838C638.396 169.861 638.491 169.998 638.469 170.142C638.448 170.273 638.339 170.366 638.215 170.366Z" fill="black"/>
<path d="M623.358 162.438C623.235 162.438 623.128 162.347 623.105 162.219C623.08 162.074 623.173 161.936 623.312 161.91L624.907 161.611C625.055 161.589 625.18 161.682 625.206 161.826C625.231 161.97 625.138 162.109 624.999 162.135L623.403 162.433C623.388 162.436 623.372 162.438 623.358 162.438Z" fill="black"/>
<path d="M629.99 163.565C629.949 163.565 629.908 163.556 629.87 163.535L627.253 162.108C627.128 162.04 627.08 161.879 627.146 161.749C627.211 161.618 627.367 161.568 627.494 161.638L630.11 163.064C630.235 163.132 630.283 163.293 630.218 163.423C630.172 163.514 630.082 163.565 629.99 163.565Z" fill="black"/>
<path d="M623.358 166.409C623.334 166.409 623.31 166.405 623.285 166.398C623.149 166.356 623.071 166.208 623.111 166.068L623.572 164.452L623.156 163.904C623.068 163.789 623.087 163.622 623.199 163.531C623.311 163.441 623.472 163.462 623.559 163.576L624.058 164.232C624.11 164.299 624.125 164.388 624.103 164.471L623.604 166.218C623.571 166.334 623.468 166.409 623.358 166.409Z" fill="black"/>
<path d="M627.896 166.878C627.872 166.878 627.848 166.874 627.823 166.867C627.687 166.825 627.61 166.677 627.65 166.537L628.109 164.926L627.508 164.17C627.418 164.057 627.433 163.889 627.543 163.796C627.651 163.702 627.814 163.718 627.905 163.832L628.593 164.696C628.648 164.764 628.665 164.856 628.641 164.941L628.143 166.687C628.109 166.803 628.007 166.878 627.896 166.878Z" fill="black"/>
<path d="M621.023 337.633C620.904 337.633 620.797 337.547 620.772 337.423C616.481 316.788 616.72 247.076 616.737 243.106L610.081 239.917C609.951 239.855 609.896 239.697 609.956 239.564C610.015 239.43 610.17 239.37 610.296 239.434L617.103 242.695C617.195 242.738 617.252 242.834 617.252 242.937C617.248 243.668 616.892 316.232 621.274 337.31C621.304 337.454 621.216 337.596 621.077 337.626C621.059 337.631 621.041 337.633 621.023 337.633Z" fill="#0072BB"/>
<path d="M650.233 361.722C650.233 363.67 649.124 366.368 645.223 367.264C641.327 368.168 620.95 367.264 620.317 366.516C619.979 366.125 619.766 364.533 619.641 363.104C619.503 361.587 619.854 360.056 620.63 358.782C620.63 358.782 621.933 361.02 634.382 361.486C642.367 361.782 647.377 360.582 649.938 359.685C650.126 360.663 650.233 361.391 650.233 361.722Z" fill="#0072BB"/>
<path d="M624.852 184.003C624.852 184.003 624.392 179.828 625.456 179.673C626.52 179.518 627.699 180.333 630.189 179.924C632.68 179.515 634.031 178.686 634.812 178.708C635.594 178.731 634.923 183.877 634.923 183.877L628.682 185.973L624.852 184.003Z" fill="#044066"/>
<path d="M643.791 239.941C643.767 239.941 643.742 239.938 643.717 239.929C638.075 238.163 637.257 232.494 637.248 232.438C637.23 232.291 637.328 232.157 637.468 232.138C637.616 232.112 637.737 232.219 637.758 232.364C637.766 232.418 638.546 237.754 643.866 239.421C644.002 239.463 644.079 239.611 644.037 239.752C644.004 239.867 643.902 239.941 643.791 239.941Z" fill="#0072BB"/>
<path d="M638.883 166.447C638.883 166.447 637.745 165.908 636.855 166.007C635.957 166.099 635.258 166.61 635.258 166.61L634.052 168.064L634.923 164.943C634.923 164.943 634.176 164.433 633.045 163.837L633.676 161.135L632.394 163.504C631.312 162.972 630.003 162.44 628.681 162.17C627.968 162.022 627.324 161.929 626.769 161.873L627.372 158.922L626.043 161.809C624.604 161.724 623.857 161.873 623.857 161.873L622.631 164.858C622.631 164.858 623.083 156.554 626.742 154.589C630.4 152.625 636.717 153.178 639.307 157.355C641.897 161.532 638.883 166.447 638.883 166.447Z" fill="black"/>
<path d="M627.373 172.118C627.32 172.118 627.266 172.101 627.219 172.065C627.106 171.978 627.083 171.811 627.167 171.693L628.189 170.275C628.273 170.158 628.435 170.133 628.548 170.221C628.662 170.308 628.685 170.475 628.601 170.593L627.579 172.011C627.529 172.081 627.451 172.118 627.373 172.118Z" fill="black"/>
<path d="M589.978 196.058C589.978 196.058 580.438 193.948 575.213 190.638C569.988 187.327 568.936 184.981 569.302 184.11C569.668 183.24 573.385 184.557 573.385 184.557C573.385 184.557 568.558 181.306 569.393 179.412C570.228 177.519 574.773 179.886 574.773 179.886C574.773 179.886 571.789 176.828 573.304 175.878C574.82 174.928 582.805 180.001 582.805 180.001C582.805 180.001 579.686 176.166 580.848 175.415C582.01 174.665 588.134 177.943 589.687 180.196C591.24 182.449 592.414 186.244 592.414 186.244L589.978 196.058Z" fill="#FF9280"/>
<path d="M587.712 188.402C587.657 188.402 587.602 188.384 587.556 188.346C582.333 184.166 582.537 180.152 582.549 179.982C582.558 179.837 582.679 179.724 582.821 179.736C582.962 179.745 583.07 179.872 583.061 180.018C583.058 180.057 582.883 183.933 587.869 187.926C587.982 188.015 588.003 188.183 587.916 188.299C587.865 188.366 587.789 188.402 587.712 188.402Z" fill="black"/>
<path d="M578.318 189.378C578.293 189.378 578.266 189.374 578.241 189.366C578.106 189.323 578.03 189.173 578.072 189.033L581.087 179.025C581.128 178.885 581.272 178.803 581.408 178.85C581.544 178.894 581.62 179.043 581.578 179.183L578.563 189.191C578.529 189.305 578.427 189.378 578.318 189.378Z" fill="black"/>
<path d="M667.972 197.122C667.972 197.122 677.511 195.013 682.736 191.702C687.961 188.392 689.014 186.045 688.647 185.175C688.281 184.305 684.564 185.622 684.564 185.622C684.564 185.622 689.391 182.371 688.556 180.477C687.721 178.583 683.176 180.95 683.176 180.95C683.176 180.95 686.161 177.893 684.645 176.943C683.13 175.993 675.145 181.066 675.145 181.066C675.145 181.066 678.264 177.23 677.102 176.48C675.94 175.729 669.816 179.007 668.263 181.26C666.71 183.514 665.536 187.308 665.536 187.308L667.972 197.122Z" fill="#FF9280"/>
<path d="M670.238 189.467C670.161 189.467 670.085 189.431 670.034 189.364C669.947 189.247 669.968 189.08 670.081 188.99C675.067 184.998 674.892 181.122 674.89 181.083C674.88 180.937 674.988 180.81 675.129 180.8C675.272 180.785 675.391 180.902 675.401 181.047C675.413 181.216 675.617 185.231 670.394 189.411C670.349 189.448 670.293 189.467 670.238 189.467Z" fill="black"/>
<path d="M679.632 190.443C679.522 190.443 679.421 190.37 679.386 190.256L676.372 180.248C676.33 180.108 676.405 179.959 676.541 179.915C676.675 179.866 676.82 179.949 676.863 180.09L679.878 190.098C679.919 190.238 679.844 190.387 679.708 190.43C679.683 190.439 679.657 190.443 679.632 190.443Z" fill="black"/>
<path d="M580.949 197.375C580.949 197.375 590.473 213.242 599.36 215.005C608.248 216.767 619.611 208.61 619.611 208.61L627.373 183.023C627.373 183.023 622.986 180.019 619.611 180.684C616.237 181.349 607.03 192.119 604.289 191.993C601.549 191.867 592.279 184.775 592.279 184.775L580.949 197.375Z" fill="#0072BB"/>
<path d="M677.125 198.076C677.125 198.076 667.601 213.943 658.714 215.706C649.826 217.468 638.463 209.311 638.463 209.311L630.701 183.724C630.701 183.724 635.088 180.72 638.463 181.385C641.838 182.05 651.044 192.82 653.785 192.694C656.526 192.568 665.795 185.476 665.795 185.476L677.125 198.076Z" fill="#0072BB"/>
<path d="M99.1673 344.494L94.9766 338.189L109.544 328.02L115.93 333.715L106.152 345.511L99.1673 344.494Z" fill="#F48462"/>
<path d="M70.8304 339.206L71.03 350.189L52.2715 349.986L53.0697 338.189L70.8304 339.206Z" fill="#F48462"/>
<path d="M96.6478 366.004C97.0574 365.948 97.3328 365.53 97.2607 365.088C96.9188 362.995 95.7032 357.146 92.5048 354.663C88.5739 351.613 80.338 350.392 77.343 348.359C74.348 346.325 70.9969 341.415 69.2096 342.344C67.4224 343.274 64.0531 347.545 59.1864 346.935C54.3197 346.325 52.0735 345.104 50.7632 346.325C49.453 347.545 48.7043 364.629 49.2658 365.646C49.8274 366.663 56.6822 365.724 57.2792 365.888C57.8762 366.053 59.5608 361.985 60.6839 362.595C61.807 363.205 63.1771 365.114 64.8318 365.99C66.3757 366.808 91.7405 366.685 96.6478 366.004Z" fill="#044066"/>
<path d="M83.0034 277.785L80.6087 231.21L51.2734 231.007C51.2734 231.007 47.6814 243.006 46.6836 254.599C45.6858 266.192 43.0915 339.817 43.4906 340.833C43.8897 341.85 76.4179 343.071 78.4135 341.85C80.4091 340.63 83.0034 277.785 83.0034 277.785Z" fill="#0072BB"/>
<path d="M146.356 333.959C146.667 333.675 146.667 333.17 146.364 332.846C144.927 331.31 140.694 327.167 136.654 326.956C131.689 326.696 124.13 330.436 120.507 330.479C116.884 330.522 111.381 328.389 110.398 330.189C109.414 331.99 108.945 337.471 104.539 339.772C100.134 342.074 97.5843 342.359 97.1595 344.125C96.7347 345.892 105.503 360.473 106.532 360.991C107.561 361.509 112.777 356.777 113.367 356.569C113.957 356.362 113.129 352.021 114.403 351.879C115.678 351.736 117.873 352.526 119.739 352.298C121.48 352.084 142.626 337.353 146.356 333.959Z" fill="#044066"/>
<path d="M85.7972 230.803C85.7972 230.803 120.321 323.343 119.922 325.377C119.523 327.41 93.181 341.851 91.5845 341.851C89.988 341.851 78.4135 320.902 78.4135 320.902L77.0166 231.007L85.7972 230.803Z" fill="#0072BB"/>
<path d="M53.6788 243.852C53.2064 243.852 52.7174 243.796 52.2118 243.672C52.0739 243.638 51.9882 243.495 52.0205 243.351C52.054 243.209 52.1914 243.117 52.3297 243.155C57.8744 244.499 61.3837 237.101 61.4186 237.025C61.4808 236.892 61.636 236.839 61.7614 236.901C61.8894 236.965 61.9432 237.124 61.8815 237.257C61.8482 237.328 58.7491 243.852 53.6788 243.852Z" fill="#044066"/>
<path d="M50.8381 341.998C50.6934 341.996 50.5795 341.876 50.5811 341.729C50.5848 341.361 50.9656 304.659 52.0147 282.906C53.0648 261.146 55.3975 243.376 55.421 243.2C55.4408 243.053 55.5751 242.958 55.7105 242.972C55.851 242.992 55.9493 243.126 55.9298 243.271C55.9063 243.449 53.5768 261.197 52.5277 282.932C51.4792 304.675 51.0989 341.366 51.0952 341.735C51.0937 341.88 50.9788 341.998 50.8381 341.998Z" fill="#044066"/>
<path d="M80.4961 324.881C80.3598 324.881 80.2459 324.77 80.2396 324.628L76.76 248.887C76.7558 248.793 76.7992 248.704 76.875 248.652L84.6114 243.366C84.73 243.284 84.8898 243.319 84.9672 243.442C85.0456 243.564 85.0132 243.729 84.8946 243.81L77.2805 249.012L80.7527 324.602C80.7595 324.749 80.6503 324.874 80.5081 324.881C80.504 324.881 80.4998 324.881 80.4961 324.881Z" fill="#044066"/>
<path d="M97.2721 338.456C97.1843 338.456 97.0981 338.408 97.0505 338.324L79.475 307.336C79.4029 307.209 79.4441 307.047 79.5664 306.972C79.6871 306.899 79.8459 306.94 79.918 307.067L97.4936 338.056C97.5657 338.182 97.5244 338.344 97.4021 338.419C97.3613 338.444 97.3165 338.456 97.2721 338.456Z" fill="#044066"/>
<path d="M71.5099 180.908C71.5099 180.908 78.9744 181.258 81.9334 187.448C84.8924 193.637 87.1292 230.53 87.1292 230.53C87.1292 230.53 78.8534 234.315 66.7757 234.152C54.6979 233.989 50.6135 230.75 50.6135 230.75L48.29 207.999C48.29 207.999 49.26 184.021 52.271 182.339C55.2821 180.657 66.5116 179.577 71.5099 180.908Z" fill="#1C1B1F"/>
<path d="M71.45 161.114C71.45 161.114 75.2444 153.51 71.6604 152.145C68.0764 150.779 64.1375 155.065 64.1375 155.065C64.1375 155.065 56.3681 156.259 53.6477 160.769C50.9272 165.28 58.6554 172.419 58.6554 172.419L71.45 161.114Z" fill="black"/>
<path d="M60.1344 173.977L60.1133 181.452C60.1133 181.452 61.4096 183.605 65.6335 183.973C68.78 184.247 69.8878 183.514 69.8878 183.514L69.4596 179.727L69.0373 176.034L61.4135 174.274L60.1344 173.977Z" fill="#F99178"/>
<path d="M61.4141 174.274C61.4317 174.478 61.506 174.719 61.6219 174.996C63.2274 178.735 67.6429 179.553 69.4602 179.727L69.0379 176.034L61.4141 174.274Z" fill="black"/>
<path d="M70.6954 159C70.6954 159 74.4592 168.384 72.9504 173.586C71.4416 178.789 66.853 177.878 64.1167 176.815C61.3805 175.751 60.1332 173.979 60.1332 173.979C60.1332 173.979 57.5443 174.832 55.8676 172.323C54.1908 169.814 55.3009 166.991 56.7815 166.367C58.262 165.743 59.9894 166.875 59.9894 166.875L58.6684 164.143C58.6684 164.143 64.6735 150.505 70.6954 159Z" fill="#F99178"/>
<path d="M59.7124 170.878C59.6602 170.878 59.6074 170.861 59.562 170.827L56.3155 168.395C56.2005 168.309 56.1744 168.143 56.258 168.024C56.341 167.905 56.501 167.877 56.6164 167.965L59.8629 170.396C59.9779 170.482 60.004 170.648 59.9204 170.767C59.8701 170.839 59.7918 170.878 59.7124 170.878Z" fill="black"/>
<path d="M56.7475 170.827C56.6325 170.827 56.528 170.747 56.4982 170.626C56.4632 170.484 56.5468 170.339 56.6842 170.303L58.8284 169.739C58.9663 169.702 59.1052 169.789 59.1409 169.931C59.1759 170.074 59.0923 170.219 58.9549 170.255L56.8107 170.819C56.7892 170.824 56.7683 170.827 56.7475 170.827Z" fill="black"/>
<path d="M70.4065 169.67C70.2262 169.644 70.1301 169.509 70.1521 169.363C70.4906 167.117 69.1077 165.905 69.0487 165.855C68.9395 165.761 68.9233 165.594 69.0136 165.48C69.103 165.367 69.2638 165.35 69.3741 165.443C69.4425 165.501 71.0449 166.889 70.6599 169.445C70.64 169.576 70.5308 169.67 70.4065 169.67Z" fill="black"/>
<path d="M71.5989 165.915C71.4855 165.915 71.3816 165.837 71.3507 165.718L70.9035 164.002C70.8664 163.861 70.9479 163.715 71.0848 163.676C71.2238 163.64 71.3632 163.723 71.3998 163.864L71.847 165.58C71.8841 165.722 71.8026 165.868 71.6657 165.906C71.6433 165.912 71.6208 165.915 71.5989 165.915Z" fill="black"/>
<path d="M67.0286 166.233C66.9152 166.233 66.8113 166.154 66.7804 166.036L66.3332 164.32C66.2961 164.179 66.3776 164.033 66.5145 163.994C66.655 163.96 66.793 164.04 66.8295 164.182L67.2767 165.897C67.3138 166.039 67.2323 166.185 67.0954 166.223C67.073 166.229 67.0505 166.233 67.0286 166.233Z" fill="black"/>
<path d="M71.45 161.114C71.45 161.114 70.67 159.609 68.8685 159.591C67.0671 159.573 66.0115 160.883 66.0115 160.883C66.0115 160.883 66.7929 164.025 64.3385 165.686C61.8842 167.347 59.9899 166.874 59.9899 166.874L58.2148 166.214L56.9189 163.522L62.0755 157.804L68.7388 154.189L72.1203 157.385L71.45 161.114Z" fill="black"/>
<path d="M64.1372 155.065C64.1372 155.065 63.9142 150.928 59.7115 152.745C55.5087 154.563 55.835 160.207 55.835 160.207L64.1372 155.065Z" fill="black"/>
<path d="M71.7838 161.448C71.7592 161.447 70.3874 161.313 70.3874 161.313C70.2464 161.299 70.1423 161.17 70.1554 161.023C70.169 160.877 70.2923 160.771 70.4355 160.783L71.8075 160.917C71.9485 160.931 72.0525 161.061 72.0394 161.207C72.0268 161.345 71.9144 161.448 71.7838 161.448Z" fill="black"/>
<path d="M65.6124 163.382C65.5132 163.382 65.4191 163.322 65.3768 163.222C65.3204 163.087 65.3799 162.93 65.51 162.872L67.3616 162.038C67.4912 161.978 67.6426 162.041 67.6996 162.176C67.756 162.31 67.6965 162.467 67.5664 162.526L65.7149 163.359C65.6813 163.375 65.6469 163.382 65.6124 163.382Z" fill="black"/>
<path d="M71.0971 172.204C71.0495 172.204 71.0014 172.19 70.9586 172.162C70.8389 172.083 70.8039 171.918 70.8802 171.795L71.9032 170.135C71.98 170.012 72.1405 169.976 72.2585 170.054C72.3782 170.134 72.4132 170.298 72.3369 170.422L71.3139 172.081C71.2648 172.16 71.1818 172.204 71.0971 172.204Z" fill="black"/>
<path d="M56.9182 181.018C56.9182 181.018 45.7864 181.017 39.6801 199.446C35.9689 210.647 37.4534 219.408 37.4534 219.408L56.4998 212.014L56.9182 181.018Z" fill="#1C1B1F"/>
<path d="M81.6936 211.172C81.6936 211.172 80.8201 205.271 79.7274 199.997C78.6347 194.723 77.3701 186.736 77.3701 186.736L82.9284 179.967C82.9284 179.967 94.0859 193.563 97.0046 206.215C99.9234 218.867 97.7579 222.734 91.5278 221.952C84.1471 221.026 81.6936 211.172 81.6936 211.172Z" fill="#F99178"/>
<path d="M40.0625 218.362C40.0625 218.362 41.6223 228.081 55.0278 229.027C65.7763 229.785 83.8066 224.064 83.8066 224.064C83.8066 224.064 92.3525 224.198 94.6753 223.095C96.9982 221.992 97.306 220.485 97.306 220.485C97.306 220.485 98.8929 218.92 98.8044 218.072C98.716 217.225 97.8059 213.398 97.8059 213.398C97.8059 213.398 99.0936 210.24 97.9181 210.074C96.7426 209.907 94.7122 209.62 94.7122 209.62C94.7122 209.62 90.9168 207.891 89.2725 208.374C87.6281 208.857 83.2695 213.012 83.2695 213.012L56.5006 212.014L40.0625 218.362Z" fill="#F99178"/>
<path d="M82.9285 179.967C82.9285 179.967 79.6476 167.968 77.9347 168.18C76.2218 168.392 72.8143 171.938 72.1201 173.238C71.4258 174.538 72.1201 176.193 72.1201 176.193C72.1201 176.193 71.444 177.07 72.1201 177.636C72.7962 178.202 74.7374 177.001 74.7374 177.001C74.7374 177.001 73.0245 185.885 78.0489 186.949C83.0733 188.013 82.9285 179.967 82.9285 179.967Z" fill="#F99178"/>
<path d="M89.2396 210.618C89.1284 210.618 89.0265 210.543 88.993 210.427C88.9528 210.287 89.0306 210.138 89.167 210.097L93.3142 208.829C93.449 208.79 93.5921 208.869 93.6334 209.009C93.6736 209.15 93.5958 209.298 93.4594 209.34L89.3122 210.607C89.2882 210.614 89.2636 210.618 89.2396 210.618Z" fill="black"/>
<path d="M96.6614 213.573C96.5704 213.573 96.4822 213.523 96.4357 213.434C96.3678 213.305 96.4137 213.144 96.5386 213.073L97.9989 212.251C98.1223 212.18 98.279 212.227 98.3474 212.357C98.4153 212.486 98.3694 212.648 98.2444 212.718L96.7842 213.54C96.745 213.563 96.7032 213.573 96.6614 213.573Z" fill="black"/>
<path d="M72.1203 175.734C72.0439 175.734 71.9687 175.699 71.9181 175.632C71.8303 175.517 71.8501 175.349 71.962 175.259L75.721 172.21C75.8322 172.119 75.9937 172.139 76.0815 172.255C76.1693 172.37 76.1494 172.538 76.0375 172.628L72.2785 175.677C72.2315 175.716 72.1756 175.734 72.1203 175.734Z" fill="black"/>
<path d="M72.6807 172.685C72.5965 172.685 72.514 172.642 72.4649 172.563C72.3881 172.44 72.4221 172.276 72.5412 172.196L75.7391 170.055C75.8572 169.977 76.0175 170.011 76.0943 170.134C76.1711 170.258 76.1371 170.422 76.018 170.502L72.8201 172.642C72.7768 172.671 72.7287 172.685 72.6807 172.685Z" fill="black"/>
<path d="M122.765 119.495C122.765 114.676 118.991 110.77 114.336 110.77C112.27 110.77 110.381 111.542 108.915 112.818C109.068 112.16 109.158 111.477 109.158 110.77C109.158 105.951 105.384 102.045 100.728 102.045C97.6879 102.045 95.0314 103.717 93.5487 106.215C92.066 103.717 89.4095 102.045 86.369 102.045C81.7136 102.045 77.9397 105.951 77.9397 110.77C77.9397 112.471 78.4172 114.053 79.2303 115.394C78.4369 115.138 77.5933 115 76.7183 115C72.0629 115 68.2891 118.907 68.2891 123.725C68.2891 128.544 72.0629 132.45 76.7183 132.45C77.114 132.45 77.5 132.412 77.881 132.358C77.1467 133.652 76.7183 135.155 76.7183 136.764C76.7183 141.583 80.4923 145.489 85.1477 145.489C88.1779 145.489 90.8266 143.829 92.3123 141.345C93.7233 144.12 96.5324 146.015 99.7724 146.015C104.175 146.015 107.785 142.519 108.164 138.064C109.566 139.141 111.296 139.785 113.176 139.785C117.831 139.785 121.605 135.879 121.605 131.06C121.605 129.148 121.004 127.385 119.996 125.947C121.693 124.351 122.765 122.056 122.765 119.495Z" fill="#0072BB"/>
<path d="M89.5043 154.714C91.1237 154.714 92.4364 153.355 92.4364 151.679C92.4364 150.003 91.1237 148.644 89.5043 148.644C87.885 148.644 86.5723 150.003 86.5723 151.679C86.5723 153.355 87.885 154.714 89.5043 154.714Z" fill="#0072BB"/>
<path d="M83.2204 159.126C83.5034 157.874 82.7526 156.622 81.5434 156.329C80.3342 156.036 79.1246 156.813 78.8415 158.065C78.5585 159.317 79.3093 160.569 80.5185 160.862C81.7277 161.155 82.9374 160.378 83.2204 159.126Z" fill="#0072BB"/>
<path d="M103.697 121.277C104.086 119.824 103.147 118.492 101.215 117.938C99.3606 117.407 97.8115 117.745 96.5944 118.766L94.5996 116.433C96.532 114.863 99.107 114.317 102.242 115.216C105.927 116.272 107.919 118.714 107.12 121.699C105.988 125.93 101.597 125.089 100.777 128.152L97.5934 127.24C98.6213 123.398 103.003 123.871 103.697 121.277ZM96.0743 131.302C96.3728 130.187 97.4357 129.541 98.6147 129.879C99.7681 130.21 100.359 131.329 100.06 132.445C99.7618 133.561 98.6918 134.232 97.5384 133.902C96.3594 133.564 95.7757 132.418 96.0743 131.302Z" fill="#0D1317"/>
<path d="M393.581 54.5754C392.952 51.6267 390.082 50.1822 386.162 51.0783C382.398 51.9388 379.963 54.0428 378.734 57.0315L373.089 54.8405C375.085 50.185 379.147 46.7171 385.51 45.2626C392.989 43.5529 398.729 45.9406 400.021 51.9988C401.853 60.5853 393.32 63.3637 394.647 69.5805L388.185 71.0578C386.521 63.2604 394.705 59.8423 393.581 54.5754ZM389.18 79.7232C388.697 77.4587 389.993 75.2844 392.386 74.7373C394.727 74.2021 396.787 75.6092 397.27 77.8738C397.754 80.1384 396.469 82.3663 394.128 82.9014C391.735 83.4484 389.663 81.9878 389.18 79.7232Z" fill="#AAAAAA"/>
<path d="M161.485 123.344C160.435 121.295 158.025 120.835 155.301 122.33C152.686 123.765 151.301 125.839 150.983 128.312L146.371 127.888C146.927 124.019 149.246 120.59 153.667 118.164C158.864 115.312 163.584 115.861 165.741 120.07C168.797 126.036 163.032 129.903 165.245 134.223L160.755 136.687C157.98 131.269 163.359 127.003 161.485 123.344ZM163.208 142.889C162.402 141.316 162.93 139.432 164.593 138.519C166.22 137.626 168.023 138.23 168.829 139.804C169.635 141.377 169.126 143.299 167.499 144.192C165.836 145.104 164.014 144.463 163.208 142.889Z" fill="#AAAAAA"/>
<path d="M661.726 118.939C662.878 116.165 661.362 113.258 657.674 111.618C654.131 110.042 650.968 110.28 648.285 111.965L644.936 106.776C649.183 104.201 654.436 103.839 660.423 106.501C667.46 109.631 670.775 115.037 668.409 120.737C665.055 128.817 656.559 125.918 654.131 131.768L648.051 129.064C651.097 121.727 659.669 123.895 661.726 118.939ZM643.973 136.701C644.858 134.571 647.136 133.588 649.388 134.589C651.591 135.569 652.47 137.956 651.586 140.087C650.701 142.218 648.402 143.251 646.199 142.271C643.948 141.27 643.089 138.832 643.973 136.701Z" fill="#AAAAAA"/>
<path d="M419.273 72.7351C420.216 71.3052 419.672 69.4972 417.771 68.1545C415.945 66.865 414.14 66.6387 412.452 67.2813L411.119 63.9804C413.782 63.0153 416.776 63.4096 419.861 65.5889C423.488 68.1507 424.779 71.5696 422.842 74.5074C420.097 78.6713 415.625 76.0734 413.637 79.0881L410.504 76.8747C412.996 73.0936 417.589 75.2892 419.273 72.7351ZM407.398 80.7077C408.122 79.6096 409.508 79.3161 410.668 80.1357C411.804 80.9376 412.045 82.3808 411.321 83.4789C410.597 84.5771 409.194 84.8967 408.058 84.0947C406.898 83.2751 406.674 81.806 407.398 80.7077Z" fill="#AAAAAA"/>
<path d="M89.5096 122.261C89.2191 121.199 88.1425 120.736 86.7316 121.15C85.3765 121.547 84.5323 122.369 84.1462 123.486L82.042 122.812C82.6737 121.07 84.0832 119.715 86.3734 119.044C89.0655 118.254 91.2081 118.998 91.8049 121.178C92.6509 124.269 89.5966 125.472 90.2091 127.709L87.8831 128.391C87.1149 125.585 90.0285 124.157 89.5096 122.261ZM88.4254 131.529C88.2023 130.714 88.6299 129.893 89.4912 129.64C90.3339 129.393 91.1143 129.86 91.3375 130.675C91.5607 131.491 91.1383 132.331 90.2956 132.579C89.4343 132.831 88.6486 132.345 88.4254 131.529Z" fill="#0D1317"/>
<path d="M513.483 295.519H216.335C210.722 295.519 206.172 290.809 206.172 284.999V126.764C206.172 120.954 210.722 116.244 216.335 116.244H513.483C519.096 116.244 523.646 120.954 523.646 126.764V284.999C523.646 290.809 519.096 295.519 513.483 295.519Z" fill="#AAAAAA"/>
<path d="M558.613 333.148H174.757C169.45 333.148 165.147 328.694 165.147 323.201V322.737C165.147 317.244 169.45 312.79 174.757 312.79H558.613C563.92 312.79 568.223 317.244 568.223 322.737V323.201C568.223 328.694 563.92 333.148 558.613 333.148Z" fill="#AAAAAA"/>
<path d="M299.22 102.687H215.387C215.045 102.687 214.767 102.399 214.767 102.045C214.767 101.691 215.045 101.403 215.387 101.403H299.22C299.562 101.403 299.84 101.691 299.84 102.045C299.84 102.399 299.562 102.687 299.22 102.687Z" fill="#0D1317"/>
<path d="M415.36 323.61H314.505C314.163 323.61 313.885 323.323 313.885 322.968C313.885 322.614 314.163 322.327 314.505 322.327H415.36C415.702 322.327 415.979 322.613 415.979 322.968C415.979 323.323 415.702 323.61 415.36 323.61Z" fill="#0D1317"/>
<path d="M494.311 204.643C494.311 208.224 492.91 211.471 490.64 213.82C488.371 216.169 485.234 217.619 481.774 217.619H457.941V191.654H481.774C488.693 191.654 494.311 197.468 494.311 204.643Z" fill="#0072BB"/>
<path d="M259.021 205.227C259.258 203.716 258.266 202.292 256.807 202.047C255.347 201.802 253.972 202.828 253.735 204.339C253.498 205.85 254.489 207.273 255.949 207.519C257.409 207.764 258.784 206.738 259.021 205.227Z" fill="#0072BB"/>
<path d="M267.744 206.742C268.789 205.66 268.789 203.905 267.744 202.823C266.698 201.741 265.003 201.741 263.957 202.823C262.911 203.905 262.911 205.66 263.957 206.743C265.003 207.825 266.698 207.825 267.744 206.742Z" fill="#0072BB"/>
<path d="M277.944 205.443C278.284 203.953 277.393 202.46 275.954 202.109C274.515 201.757 273.072 202.679 272.733 204.169C272.393 205.659 273.284 207.151 274.723 207.503C276.162 207.855 277.605 206.933 277.944 205.443Z" fill="#0072BB"/>
<path d="M218.789 265.109H142.894C141.347 265.109 140.094 263.811 140.094 262.21V161.913C140.094 160.313 141.347 159.015 142.894 159.015H218.789C220.335 159.015 221.589 160.313 221.589 161.913V262.21C221.589 263.811 220.335 265.109 218.789 265.109Z" fill="#0072BB"/>
<path d="M556.798 164.973H475.982C474.335 164.973 473 163.591 473 161.887V55.0862C473 53.3817 474.335 52 475.982 52H556.798C558.444 52 559.779 53.3817 559.779 55.0862V161.887C559.779 163.591 558.444 164.973 556.798 164.973Z" fill="#044066"/>
<path d="M550.798 164.973H469.982C468.335 164.973 467 163.591 467 161.887V55.0862C467 53.3817 468.335 52 469.982 52H550.798C552.444 52 553.779 53.3817 553.779 55.0862V161.887C553.779 163.591 552.444 164.973 550.798 164.973Z" fill="#0072BB"/>
<path d="M206.017 184.78H156.035C155.693 184.78 155.415 184.492 155.415 184.138C155.415 183.784 155.693 183.496 156.035 183.496H206.017C206.36 183.496 206.638 183.784 206.638 184.138C206.637 184.492 206.359 184.78 206.017 184.78Z" fill="black"/>
<path d="M206.017 198.742H156.035C155.693 198.742 155.415 198.454 155.415 198.1C155.415 197.745 155.693 197.458 156.035 197.458H206.017C206.36 197.458 206.638 197.745 206.638 198.1C206.637 198.454 206.359 198.742 206.017 198.742Z" fill="black"/>
<path d="M206.017 212.704H156.035C155.693 212.704 155.415 212.416 155.415 212.062C155.415 211.708 155.693 211.42 156.035 211.42H206.017C206.36 211.42 206.638 211.708 206.638 212.062C206.637 212.416 206.359 212.704 206.017 212.704Z" fill="black"/>
<path d="M206.017 226.664H156.035C155.693 226.664 155.415 226.378 155.415 226.023C155.415 225.668 155.693 225.382 156.035 225.382H206.017C206.36 225.382 206.638 225.668 206.638 226.023C206.638 226.378 206.359 226.664 206.017 226.664Z" fill="black"/>
<path d="M205.645 240.627H155.663C155.321 240.627 155.043 240.341 155.043 239.986C155.043 239.631 155.321 239.344 155.663 239.344H205.645C205.988 239.344 206.265 239.631 206.265 239.986C206.265 240.341 205.988 240.627 205.645 240.627Z" fill="black"/>
<path d="M535.141 73.8856H485.159C484.816 73.8856 484.539 73.598 484.539 73.2437C484.539 72.8895 484.816 72.6018 485.159 72.6018H535.141C535.484 72.6018 535.761 72.8895 535.761 73.2437C535.761 73.598 535.484 73.8856 535.141 73.8856Z" fill="#0D1317"/>
<path d="M535.141 87.8473H485.159C484.816 87.8473 484.539 87.5596 484.539 87.2054C484.539 86.8511 484.816 86.5635 485.159 86.5635H535.141C535.484 86.5635 535.761 86.8511 535.761 87.2054C535.761 87.5596 535.484 87.8473 535.141 87.8473Z" fill="#0D1317"/>
<path d="M535.141 101.809H485.159C484.816 101.809 484.539 101.521 484.539 101.167C484.539 100.813 484.816 100.525 485.159 100.525H535.141C535.484 100.525 535.761 100.813 535.761 101.167C535.761 101.521 535.484 101.809 535.141 101.809Z" fill="#0D1317"/>
<path d="M535.141 115.771H485.159C484.816 115.771 484.539 115.483 484.539 115.129C484.539 114.775 484.816 114.487 485.159 114.487H535.141C535.484 114.487 535.761 114.775 535.761 115.129C535.761 115.483 535.484 115.771 535.141 115.771Z" fill="#0D1317"/>
<path d="M534.77 129.733H484.788C484.445 129.733 484.168 129.445 484.168 129.091C484.168 128.737 484.445 128.449 484.788 128.449H534.77C535.113 128.449 535.389 128.737 535.389 129.091C535.389 129.445 535.112 129.733 534.77 129.733Z" fill="#0D1317"/>
<path d="M236.917 60.5839V72.4524H256.583V78.5829H236.917V93.5188H229.354V54.5078H259.085V60.5839H236.917Z" fill="#0D1317"/>
<path d="M291.107 84.491H270.742L266.729 93.5188H258.931L277.258 54.5078H284.706L303.093 93.5188H295.181L291.107 84.491ZM288.605 78.8074L280.925 61.7523L273.302 78.8074H288.605Z" fill="#0D1317"/>
<path d="M350.712 97.4189C348.035 100.43 344.368 102.045 340.064 102.045C334.535 102.045 330.404 99.9827 324.411 93.9634C313.007 93.0173 304.804 84.8245 304.804 74.0132C304.804 62.4783 314.113 53.9519 326.739 53.9519C339.365 53.9519 348.675 62.4216 348.675 74.0132C348.675 83.4313 342.506 90.787 333.429 93.2397C335.757 95.6355 337.851 96.5272 340.237 96.5272C342.914 96.5272 345.242 95.47 347.22 93.4076L350.712 97.4189ZM326.739 87.7241C334.943 87.7241 341.052 81.9839 341.052 74.0134C341.052 66.0451 334.943 60.3049 326.739 60.3049C318.533 60.3049 312.424 66.0451 312.424 74.0134C312.424 81.9838 318.533 87.7241 326.739 87.7241Z" fill="#0D1317"/>
<path d="M428.812 374.766C428.812 374.766 420.375 381.74 420.533 382.816C420.692 383.892 416.631 397.809 416.631 397.809L436.857 392.138V374.766H428.812Z" fill="#0A5C91"/>
<path d="M450.096 378.067V388.218L430.845 387.126V377.425L450.096 378.067Z" fill="#F48462"/>
<path d="M416.006 270.136C416.006 270.136 397.106 304.993 396.95 318.735C396.794 332.478 424.183 378.067 424.183 378.067C424.183 378.067 431.626 381.224 442.56 380.861C453.494 380.497 455.212 379.204 455.212 379.204C455.212 379.204 453.338 281.419 448.964 272.269C444.591 263.118 416.006 270.136 416.006 270.136Z" fill="#0072BB"/>
<path d="M424.182 378.332C424.048 378.332 423.934 378.223 423.926 378.081C422.175 346.968 422.73 296.99 422.768 293.825L413.293 288.017C413.17 287.941 413.13 287.779 413.202 287.653C413.274 287.525 413.434 287.485 413.554 287.558L423.157 293.445C423.237 293.494 423.285 293.583 423.284 293.678C423.278 294.198 422.64 346.089 424.438 378.051C424.447 378.197 424.339 378.324 424.197 378.331C424.192 378.332 424.187 378.332 424.182 378.332Z" fill="#0D1317"/>
<path d="M422.938 327.57C422.911 327.57 422.884 327.566 422.858 327.556C421.885 327.223 413.338 324.218 412.798 321.608C412.731 321.279 412.754 320.789 413.25 320.318C413.668 319.92 414.184 319.745 414.807 319.808C418.024 320.118 422.936 326.857 423.144 327.145C423.211 327.238 423.212 327.365 423.147 327.46C423.097 327.53 423.019 327.57 422.938 327.57ZM414.573 320.328C414.187 320.328 413.866 320.455 413.597 320.71C413.335 320.959 413.241 321.209 413.301 321.497C413.668 323.272 419.246 325.67 422.198 326.759C420.835 325.005 417.167 320.57 414.759 320.338C414.695 320.331 414.633 320.328 414.573 320.328Z" fill="#0D1317"/>
<path d="M448.01 286.01C442.924 284.952 440.379 278.661 440.273 278.393C440.22 278.258 440.282 278.103 440.414 278.047C440.544 277.989 440.694 278.057 440.748 278.192C440.773 278.255 443.297 284.488 448.061 285.483C448.2 285.512 448.29 285.653 448.262 285.797C448.237 285.922 448.13 286.01 448.01 286.01Z" fill="#0072BB"/>
<path d="M451.828 383.75C451.828 383.75 430.22 382.755 430.064 383.405C429.908 384.054 429.439 388.48 429.439 388.48L408.509 400.437C408.509 400.437 401.323 402.63 401.167 406.357C401.011 410.084 406.79 410.574 408.665 411.138C410.539 411.701 447.18 411.196 450.891 410.556C453.702 410.071 451.828 383.75 451.828 383.75Z" fill="#044066"/>
<path d="M424.609 398.075C424.597 398.075 414.017 397.549 414.017 397.549C413.876 397.542 413.766 397.417 413.773 397.27C413.78 397.124 413.888 397.006 414.042 397.017L423.744 397.499L420.385 395.032C420.29 394.962 420.252 394.837 420.292 394.724C420.33 394.612 420.415 394.524 420.554 394.55L430.185 395.349L425.916 391.637C425.807 391.543 425.792 391.376 425.884 391.263C425.975 391.151 426.138 391.137 426.246 391.231L431.131 395.478C431.216 395.553 431.246 395.675 431.203 395.782C431.161 395.889 431.071 395.97 430.945 395.946L421.443 395.158L424.758 397.591C424.851 397.66 424.89 397.784 424.852 397.895C424.816 398.004 424.718 398.075 424.609 398.075Z" fill="#0D1317"/>
<path d="M462.645 280.207C462.923 281.548 465.255 283.975 465.255 283.975C465.255 283.975 466.58 288.738 468.024 288.893C469.468 289.048 470.701 286.604 470.701 286.604C470.701 286.604 473.738 287.552 474.806 287.178C475.873 286.804 481.034 285.643 481.941 282.688C482.849 279.734 476.739 268.327 476.739 268.327L465.113 268.802C465.113 268.802 462.366 278.866 462.645 280.207Z" fill="#F48462"/>
<path d="M470.7 286.911C470.554 286.911 470.427 286.799 470.406 286.645L469.948 283.151C469.926 282.983 470.04 282.828 470.203 282.805C470.372 282.79 470.514 282.901 470.537 283.069L470.995 286.562C471.017 286.73 470.903 286.886 470.74 286.908C470.726 286.91 470.713 286.911 470.7 286.911Z" fill="black"/>
<path d="M465.256 284.282C465.103 284.282 464.973 284.161 464.96 284.001L464.301 276.053C464.286 275.884 464.408 275.735 464.572 275.721C464.741 275.701 464.88 275.832 464.892 276.001L465.552 283.949C465.566 284.118 465.445 284.267 465.281 284.281C465.273 284.282 465.264 284.282 465.256 284.282Z" fill="black"/>
<path d="M439.748 223.535L426.743 224.151L417.697 246.413V275.622C417.697 275.622 427.132 277.681 434.522 276.934C441.912 276.187 443.856 275.066 443.856 275.066L439.748 223.535Z" fill="#0D86D3"/>
<path d="M429.135 223.704C429.029 224.032 428.942 224.328 428.896 224.598C428.896 224.598 422.409 231.885 420.412 250.417C419.119 262.416 418.452 273.251 418.034 278.17L412.893 276.495C412.893 276.495 415.988 232.426 418.204 228.794C419.877 226.047 426.712 224.245 429.135 223.704Z" fill="#0D1317"/>
<path d="M483.323 269.414L460.82 271.832C460.82 271.832 459.45 263.101 456.947 259.075C454.681 255.427 451.177 254.929 451.177 254.929V278.46H436.334L439.185 226.834L439.429 223.398C447.246 223.136 458.111 224.493 467.862 232.831C483.157 245.916 483.323 269.414 483.323 269.414Z" fill="#0D1317"/>
<path d="M414.549 214.197C414.549 214.197 421.047 206.666 426.415 203.61C431.782 200.554 434.273 200.771 434.821 201.531C435.37 202.292 432.423 204.98 432.423 204.98C432.423 204.98 437.543 202.252 438.718 203.942C439.893 205.631 435.655 208.543 435.655 208.543C435.655 208.543 439.699 207.376 439.745 209.209C439.791 211.042 431.577 215.706 431.577 215.706C431.577 215.706 436.341 214.803 436.395 216.22C436.449 217.637 430.663 221.518 428.003 221.797C425.342 222.076 420.32 222.729 420.32 222.729L414.549 214.197Z" fill="#F2795C"/>
<path d="M430.772 207.08C430.772 207.08 425.514 202.046 428.321 198.409C431.128 194.772 436.304 199.071 436.304 199.071C436.304 199.071 438.579 197.033 441.457 199.034C444.334 201.036 444.376 205.397 444.376 205.397C444.376 205.397 447.438 205.553 447.345 209.418C447.252 213.282 443.008 216.413 443.008 216.413L430.772 207.08Z" fill="black"/>
<path d="M439.836 218.307L439.396 225.651C439.396 225.651 437.989 227.68 433.818 227.763C430.71 227.824 429.667 227.031 429.667 227.031L430.321 223.339L430.964 219.739L438.561 218.514L439.836 218.307Z" fill="#F48462"/>
<path d="M438.562 218.514C438.532 218.714 438.444 218.946 438.313 219.21C436.505 222.776 432.117 223.288 430.321 223.339L430.964 219.739L438.562 218.514Z" fill="black"/>
<path d="M430.387 202.897C430.387 202.897 426.11 211.865 427.271 217.076C428.432 222.286 432.996 221.695 435.749 220.831C438.503 219.968 439.837 218.309 439.837 218.309C439.837 218.309 442.328 219.319 444.13 216.965C445.932 214.611 445.015 211.764 443.6 211.053C442.184 210.343 440.417 211.34 440.417 211.34L441.883 208.744C441.883 208.744 436.826 194.95 430.387 202.897Z" fill="#F48462"/>
<path d="M440.458 215.295C440.373 215.295 440.29 215.251 440.241 215.171C440.165 215.047 440.201 214.882 440.321 214.804L443.661 212.63C443.781 212.554 443.939 212.59 444.015 212.714C444.09 212.838 444.055 213.002 443.934 213.08L440.595 215.254C440.552 215.282 440.505 215.295 440.458 215.295Z" fill="black"/>
<path d="M443.375 215.442C443.349 215.442 443.322 215.437 443.296 215.429L441.225 214.733C441.09 214.687 441.016 214.537 441.06 214.398C441.103 214.258 441.247 214.182 441.383 214.227L443.454 214.923C443.589 214.968 443.663 215.118 443.619 215.258C443.584 215.37 443.484 215.442 443.375 215.442Z" fill="black"/>
<path d="M430.488 214.636C430.371 214.636 430.265 214.553 430.237 214.43C429.568 211.434 431.169 209.438 431.238 209.354C431.329 209.243 431.49 209.229 431.6 209.324C431.707 209.418 431.721 209.586 431.63 209.698C431.614 209.717 430.13 211.583 430.739 214.31C430.77 214.453 430.685 214.596 430.546 214.629C430.527 214.634 430.507 214.636 430.488 214.636Z" fill="black"/>
<path d="M429.074 209.869C429.047 209.869 429.018 209.864 428.991 209.855C428.856 209.807 428.784 209.656 428.83 209.517L429.376 207.861C429.422 207.723 429.568 207.648 429.702 207.696C429.836 207.743 429.909 207.894 429.863 208.033L429.317 209.689C429.281 209.8 429.18 209.869 429.074 209.869Z" fill="black"/>
<path d="M433.558 210.249C433.531 210.249 433.503 210.244 433.476 210.234C433.341 210.187 433.269 210.036 433.315 209.897L433.86 208.241C433.906 208.103 434.053 208.026 434.186 208.075C434.321 208.123 434.393 208.274 434.347 208.413L433.802 210.069C433.765 210.179 433.665 210.249 433.558 210.249Z" fill="black"/>
<path d="M429.515 204.924C429.515 204.924 430.374 203.497 432.145 203.598C433.916 203.699 434.872 205.056 434.872 205.056C434.872 205.056 433.91 208.091 436.219 209.885C438.527 211.679 440.417 211.34 440.417 211.34L442.201 210.808L443.64 208.25L438.928 202.292L432.606 198.3L429.087 201.216L429.515 204.924Z" fill="black"/>
<path d="M435.089 206.49C435.055 206.49 435.022 206.483 434.988 206.469L433.458 205.8C433.327 205.742 433.266 205.587 433.321 205.451C433.377 205.316 433.524 205.253 433.658 205.31L435.189 205.979C435.32 206.037 435.38 206.192 435.326 206.327C435.284 206.429 435.189 206.49 435.089 206.49Z" fill="black"/>
<path d="M429.016 207.114C428.893 207.114 428.786 207.024 428.763 206.896C428.738 206.752 428.83 206.613 428.97 206.586L430.73 206.251C430.876 206.228 431.004 206.321 431.029 206.465C431.054 206.609 430.962 206.748 430.822 206.775L429.062 207.11C429.046 207.112 429.03 207.114 429.016 207.114Z" fill="black"/>
<path d="M431.968 216.144C431.856 216.144 431.754 216.068 431.721 215.951C431.682 215.81 431.76 215.663 431.897 215.622L433.487 215.147C433.629 215.106 433.766 215.189 433.805 215.33C433.845 215.471 433.766 215.618 433.629 215.659L432.039 216.133C432.015 216.14 431.991 216.144 431.968 216.144Z" fill="black"/>
<path d="M420.32 214.746C420.199 214.746 420.09 214.657 420.067 214.529C420.041 214.385 420.133 214.246 420.273 214.219C426.333 213.043 425.849 208.93 425.826 208.756C425.807 208.611 425.904 208.476 426.044 208.456C426.189 208.426 426.314 208.536 426.334 208.68C426.342 208.728 426.929 213.469 420.367 214.741C420.351 214.744 420.335 214.746 420.32 214.746Z" fill="black"/>
<path d="M423.21 224.055L413.423 211.271C413.423 211.271 386.472 226.31 390.887 241.611C395.303 256.911 418.803 254.372 418.803 254.372L424.183 228.122L423.21 224.055Z" fill="#0D1317"/>
<path d="M581.183 267.985C581.183 267.985 583.706 262.162 582.108 257.316C580.509 252.47 576.936 259.444 576.936 259.444L581.183 267.985Z" fill="#F47A5D"/>
<path d="M576.935 311.972V354.069H563.965L560.973 314.36L576.935 311.972Z" fill="#F48462"/>
<path d="M544.876 308.725L538.588 346.943L550.435 352.108L561.279 309.104L544.876 308.725Z" fill="#F48462"/>
<path d="M575.607 279.766C575.607 279.766 576.33 283.214 577.397 292.072C578.34 299.899 579.787 314.405 579.787 314.405L559.649 315.716L540.915 311.84C540.915 311.84 544.085 279.628 545.895 275.668C547.706 271.709 575.607 279.766 575.607 279.766Z" fill="#0072BB"/>
<path d="M563.965 238.352C563.965 238.352 571.953 238.474 577.932 245.35C583.91 252.226 584.383 258.98 584.383 258.98L570.967 263.315L541.948 259.79L542.319 246.671C542.319 246.671 546.745 244.227 548.507 242.378C553.664 236.97 563.965 238.352 563.965 238.352Z" fill="#0D1317"/>
<path d="M565.367 233.535L565.176 239.376C565.176 239.376 563.983 241.042 560.282 241.274C557.525 241.448 556.577 240.86 556.577 240.86L557.057 237.907L557.53 235.026L564.241 233.751L565.367 233.535Z" fill="#F48462"/>
<path d="M564.242 233.766C564.222 233.944 564.152 234.153 564.045 234.393C562.561 237.626 558.683 238.241 557.09 238.352L557.537 235.132L564.242 233.766Z" fill="black"/>
<path d="M556.449 220.198C556.449 220.198 552.959 228.318 554.168 232.903C555.377 237.487 559.409 236.794 561.824 235.927C564.24 235.059 565.368 233.537 565.368 233.537C565.368 233.537 567.614 234.343 569.133 232.186C570.653 230.03 569.742 227.536 568.461 226.957C567.179 226.378 565.645 227.328 565.645 227.328L566.858 224.969C566.858 224.969 561.896 212.906 556.449 220.198Z" fill="#F48462"/>
<path d="M556.69 229.785C556.58 229.785 556.479 229.711 556.444 229.598C555.911 227.812 557.203 226.631 557.258 226.582C557.367 226.488 557.528 226.498 557.62 226.609C557.713 226.72 557.701 226.888 557.595 226.985C557.55 227.025 556.503 227.993 556.936 229.44C556.977 229.58 556.901 229.729 556.766 229.773C556.74 229.78 556.715 229.785 556.69 229.785Z" fill="black"/>
<path d="M565.979 231.154C565.915 231.154 565.852 231.13 565.802 231.082C565.699 230.981 565.695 230.812 565.792 230.705L567.93 228.361C568.028 228.254 568.189 228.25 568.293 228.351C568.397 228.451 568.401 228.62 568.304 228.727L566.166 231.071C566.115 231.126 566.047 231.154 565.979 231.154Z" fill="black"/>
<path d="M568.241 230.525C568.203 230.522 566.724 230.291 566.724 230.291C566.584 230.269 566.488 230.134 566.509 229.988C566.529 229.843 566.648 229.737 566.801 229.765L568.28 229.996C568.42 230.018 568.516 230.153 568.495 230.299C568.476 230.431 568.367 230.525 568.241 230.525Z" fill="black"/>
<path d="M560.239 228.099C560.066 228.079 559.967 227.946 559.984 227.8L560.242 225.7C560.26 225.555 560.381 225.455 560.53 225.469C560.671 225.487 560.77 225.621 560.752 225.767L560.494 227.867C560.478 228.001 560.367 228.099 560.239 228.099Z" fill="black"/>
<path d="M555.88 227.704C555.702 227.679 555.605 227.544 555.626 227.399L555.92 225.337C555.94 225.193 556.073 225.085 556.211 225.114C556.351 225.135 556.448 225.271 556.427 225.415L556.134 227.477C556.115 227.609 556.005 227.704 555.88 227.704Z" fill="black"/>
<path d="M561.677 224.608C561.584 224.608 561.494 224.555 561.448 224.464C561.094 223.75 560.142 223.949 560.103 223.957C559.969 223.982 559.828 223.897 559.799 223.752C559.769 223.609 559.857 223.467 559.995 223.437C560.051 223.425 561.372 223.145 561.906 224.221C561.971 224.351 561.921 224.512 561.794 224.579C561.757 224.599 561.717 224.608 561.677 224.608Z" fill="black"/>
<path d="M557.426 222.961C557.345 222.961 557.264 222.92 557.214 222.845C557.079 222.642 556.924 222.531 556.735 222.507C556.304 222.452 555.79 222.89 555.786 222.894C555.678 222.992 555.515 222.982 555.423 222.871C555.329 222.761 555.338 222.593 555.445 222.496C555.472 222.471 556.12 221.892 556.799 221.979C557.137 222.023 557.419 222.213 557.638 222.545C557.719 222.666 557.689 222.831 557.572 222.915C557.527 222.946 557.476 222.961 557.426 222.961Z" fill="black"/>
<path d="M565.645 227.328C565.645 227.328 565.279 229.233 564.243 228.544C563.207 227.854 565.645 224.342 565.645 224.342C565.645 224.342 562.783 225.371 561.002 222.945C559.221 220.519 560.05 218.991 560.05 218.991L556.066 221.158C556.066 221.158 555.232 216.277 556.636 215.342C558.04 214.407 560.405 215.342 560.405 215.342C560.405 215.342 560.26 213.241 564.243 213.748C568.226 214.255 568.117 218.533 568.117 218.533C568.117 218.533 570.736 218.412 571.621 220.841C572.507 223.27 570.883 225.145 570.883 225.145C570.883 225.145 572.741 225.579 571.886 227.251C571.031 228.924 569.927 229.716 569.927 229.716C569.927 229.716 569.412 226.19 565.645 227.328Z" fill="black"/>
<path d="M559.649 315.981C559.506 315.981 559.392 315.862 559.392 315.715V287.319L550.707 283.568C550.576 283.511 550.514 283.356 550.569 283.219C550.623 283.084 550.775 283.02 550.905 283.077L559.748 286.897C559.843 286.938 559.906 287.035 559.906 287.142V315.715C559.906 315.862 559.791 315.981 559.649 315.981Z" fill="#044066"/>
<path d="M543.44 348.467C543.44 348.467 542.578 342.905 540.007 342.056C537.436 341.206 536.274 345.783 536.274 345.783C536.274 345.783 521.907 347.912 521.404 348.01C520.902 348.109 515.664 351.148 517.608 354.097C519.553 357.046 545.087 365.007 546.86 364.67C548.632 364.332 552.202 350.732 551.715 349.998C551.228 349.263 543.44 348.467 543.44 348.467Z" fill="#0072BB"/>
<path d="M573.245 349.944C573.245 349.944 568.659 344.567 565.979 344.901C563.299 345.235 563.058 350.708 563.058 350.708C563.058 350.708 549.154 359.129 548.737 359.435C548.319 359.74 544.777 364.759 547.729 366.604C550.681 368.45 575.459 365.988 576.935 364.918C578.411 363.849 577.673 348.874 576.935 348.416C576.197 347.957 573.245 349.944 573.245 349.944Z" fill="#0072BB"/>
<path d="M547.867 258.98L545.357 277.464L575.607 279.766V258.98H547.867Z" fill="#1C1B1F"/>
<path d="M559.27 231.579C559.195 231.579 559.122 231.546 559.072 231.483C558.981 231.369 558.997 231.201 559.105 231.108L560.333 230.055C560.444 229.961 560.606 229.976 560.695 230.09C560.785 230.203 560.77 230.371 560.661 230.464L559.433 231.517C559.385 231.558 559.327 231.579 559.27 231.579Z" fill="black"/>
<path d="M566.168 237.676C565.879 236.755 565.029 236.106 564.022 236.029C560.595 235.768 552.996 235.297 552.084 236.165C550.901 237.291 557.012 238.604 557.012 238.604C557.012 238.604 556.224 245.169 556.815 246.295C557.406 247.421 559.378 248.171 559.969 247.796C560.561 247.421 560.561 247.421 560.561 247.421C560.561 247.421 561.744 249.296 562.927 249.484C564.11 249.672 568.25 247.045 568.25 245.545C568.25 244.459 566.91 240.041 566.168 237.676Z" fill="#F48462"/>
<path d="M562.335 247.608C562.335 247.608 565.82 277.406 577.654 271.5C590.443 265.117 568.249 245.544 568.249 245.544L562.335 247.608Z" fill="#F48462"/>
<path d="M542.319 246.671L547.71 260.724C547.71 260.724 541.023 264.002 534.597 258.16C528.17 252.318 527.999 238.355 527.999 238.355C527.999 238.355 520.065 234.62 519.282 232.747C518.499 230.874 523.094 232.302 523.094 232.302C523.094 232.302 519.824 231.519 520.881 230.596C521.939 229.674 523.549 230.285 523.549 230.285C523.549 230.285 522.5 229.508 523.611 229.079C524.722 228.649 531.618 229.742 531.618 229.742C531.618 229.742 532.471 227.145 533.636 227.209C534.8 227.273 533.689 233.895 533.689 233.895L542.319 246.671Z" fill="#F48462"/>
<path d="M560.56 247.686C560.494 247.686 560.429 247.66 560.378 247.608L559.087 246.276C558.987 246.172 558.987 246.004 559.087 245.9C559.187 245.796 559.35 245.796 559.451 245.9L560.742 247.232C560.842 247.336 560.842 247.504 560.742 247.609C560.692 247.66 560.626 247.686 560.56 247.686Z" fill="black"/>
<path d="M558.811 238.87H557.011C556.869 238.87 556.754 238.751 556.754 238.603C556.754 238.456 556.869 238.337 557.011 238.337H558.811C558.954 238.337 559.068 238.456 559.068 238.603C559.068 238.751 558.954 238.87 558.811 238.87Z" fill="black"/>
<path d="M526.283 233.461C526.195 233.461 526.111 233.414 526.063 233.331C525.99 233.205 526.03 233.041 526.152 232.967L529.904 230.66C530.027 230.582 530.183 230.626 530.256 230.752C530.329 230.878 530.288 231.042 530.167 231.116L526.415 233.423C526.373 233.449 526.328 233.461 526.283 233.461Z" fill="black"/>
<path d="M550.933 188.158C550.933 184.323 547.93 181.215 544.225 181.215C542.582 181.215 541.078 181.829 539.911 182.845C540.033 182.321 540.105 181.777 540.105 181.215C540.105 177.38 537.102 174.272 533.397 174.272C530.978 174.272 528.864 175.602 527.684 177.591C526.504 175.602 524.39 174.272 521.971 174.272C518.266 174.272 515.263 177.38 515.263 181.215C515.263 182.568 515.643 183.827 516.29 184.895C515.659 184.691 514.988 184.581 514.292 184.581C510.587 184.581 507.584 187.689 507.584 191.524C507.584 195.358 510.587 198.467 514.292 198.467C514.606 198.467 514.913 198.437 515.217 198.393C514.632 199.423 514.292 200.619 514.292 201.9C514.292 205.734 517.295 208.843 520.999 208.843C523.41 208.843 525.518 207.521 526.7 205.545C527.823 207.753 530.058 209.26 532.637 209.26C536.14 209.26 539.012 206.479 539.314 202.934C540.43 203.791 541.807 204.304 543.302 204.304C547.007 204.304 550.01 201.195 550.01 197.361C550.01 195.839 549.531 194.436 548.729 193.292C550.08 192.022 550.933 190.195 550.933 188.158Z" fill="#0072BB"/>
<path d="M543.847 214.486C545.466 214.486 546.779 213.127 546.779 211.451C546.779 209.775 545.466 208.416 543.847 208.416C542.228 208.416 540.915 209.775 540.915 211.451C540.915 213.127 542.228 214.486 543.847 214.486Z" fill="#0072BB"/>
<path d="M551.518 219.059C552.396 218.15 552.396 216.676 551.518 215.767C550.64 214.858 549.216 214.858 548.338 215.767C547.46 216.676 547.46 218.15 548.338 219.059C549.216 219.967 550.64 219.968 551.518 219.059Z" fill="#0072BB"/>
<path d="M231.144 380.458V390.151L248.162 389.467V380.458H231.144Z" fill="#F48462"/>
<path d="M191.848 379.366V389.06L207.602 388.375V379.366H191.848Z" fill="#F48462"/>
<path d="M226.065 272.518C226.065 272.518 238.345 293.37 245.624 326.759C252.263 357.213 253.693 382.401 253.693 382.401H224.978C224.978 382.401 221.783 357.571 220.932 347.746C220.081 337.921 217.25 324.769 217.25 324.769C217.25 324.769 213.309 381.442 212.37 382.401C211.43 383.361 183.941 382.613 184.236 381.312C184.53 380.01 192.923 286.022 193.668 279.825C195.956 260.777 226.065 272.518 226.065 272.518Z" fill="#044066"/>
<path d="M211.512 405.082C211.512 406.793 210.976 408.75 209.878 409.242C208.78 409.735 199.897 410.761 192.123 410.036C184.682 409.338 183.137 408.75 182.589 408.024C182.321 407.655 182.844 405.944 183.444 404.288C183.482 404.206 183.508 404.111 183.546 404.028C183.852 403.194 184.171 402.386 184.401 401.812C184.631 401.264 184.912 400.744 185.243 400.238C186.048 399.047 187.643 396.584 188.052 395.311C188.588 393.614 189.405 389.947 189.953 388.222C190.502 386.525 191.842 386.17 191.842 386.17C191.842 386.17 207.146 385.047 208.244 386.033C209.329 387.004 209.878 395.078 209.878 396.296V397.514C209.878 398.65 210.605 400.895 211.078 402.756C211.205 403.221 211.307 403.659 211.384 404.056C211.461 404.453 211.512 404.795 211.512 405.082Z" fill="#0072BB"/>
<path d="M275.549 408.572C274.528 409.023 231.092 410.296 230.084 408.572C229.777 408.052 229.56 406.286 229.42 404.069C229.063 398.842 229.063 391.069 229.063 391.069C229.063 391.069 228.743 388.414 228.807 387.182C228.858 385.964 249.753 386.43 249.753 386.43L263.334 397.911C263.334 397.911 267.061 397.2 271.132 397.911C273.289 398.281 274.681 401.114 275.37 403.782C275.983 406.15 276.034 408.353 275.549 408.572Z" fill="#0072BB"/>
<path d="M275.549 408.572C274.528 409.023 231.092 410.296 230.084 408.572C229.777 408.052 229.56 406.286 229.42 404.069C237.678 404.699 257.998 405.889 275.37 403.782C275.983 406.15 276.034 408.353 275.549 408.572Z" fill="#0D1317"/>
<path d="M211.512 405.082C211.512 406.793 210.976 408.75 209.878 409.242C208.78 409.735 199.897 410.761 192.123 410.036C184.682 409.338 183.137 408.75 182.589 408.024C182.321 407.655 182.844 405.944 183.444 404.288C190.349 404.849 202.819 405.356 211.078 402.756C211.205 403.221 211.307 403.659 211.384 404.056C211.461 404.453 211.512 404.795 211.512 405.082Z" fill="#0D1317"/>
<path d="M192.238 394.57C192.125 394.57 192.022 394.493 191.99 394.375C191.952 394.233 192.032 394.086 192.169 394.047C192.419 393.975 198.318 392.29 201.442 392.87L203.568 393.26C201.991 391.991 198.316 389.362 196.067 390.395C195.939 390.451 195.786 390.393 195.728 390.26C195.671 390.126 195.729 389.968 195.859 389.908C199.066 388.432 204.439 393.295 204.667 393.502C204.753 393.581 204.778 393.71 204.728 393.817C204.678 393.924 204.567 393.988 204.451 393.963L201.352 393.393C198.346 392.845 192.367 394.543 192.307 394.56C192.284 394.566 192.26 394.57 192.238 394.57Z" fill="#0D1317"/>
<path d="M260.077 395.424C260.049 395.423 252.31 394.569 252.31 394.569C252.216 394.558 252.135 394.495 252.099 394.404C252.063 394.315 252.079 394.211 252.139 394.135L254.838 390.728C254.928 390.615 255.09 390.597 255.2 390.691C255.309 390.784 255.325 390.952 255.235 391.066L252.838 394.092L260.104 394.893C260.245 394.909 260.347 395.04 260.332 395.186C260.318 395.322 260.207 395.424 260.077 395.424Z" fill="#0D1317"/>
<path d="M205.917 225.132C205.917 225.132 197.445 225.101 192.874 229.877C188.302 234.652 192.144 281.391 192.144 281.391C192.144 281.391 207.739 281.681 216.593 281.391C223.034 281.179 229.419 278.195 229.419 278.195C229.419 278.195 222.508 231.607 220.131 227.008C217.754 222.409 205.917 225.132 205.917 225.132Z" fill="#0D1317"/>
<path d="M219.451 226.101C219.451 226.101 224.292 228.294 231.144 239.818C237.411 250.359 238.308 260.103 235.415 266.091C232.522 272.08 222.816 271.914 222.816 271.914L219.451 226.101Z" fill="#0D1317"/>
<path d="M207.058 206.173C207.058 206.173 213.957 206.806 214.618 199.961C215.322 192.674 208.82 191.698 205.931 194.535C203.042 197.371 203.437 200.397 203.437 200.397C203.437 200.397 201.575 198.512 199.38 200.638C197.768 202.198 198.462 204.889 198.462 204.889C198.462 204.889 194.903 204.597 195.108 207.833C195.314 211.07 197.476 212.799 197.476 212.799L207.058 206.173Z" fill="black"/>
<path d="M200.242 218.54L200.661 226.173C200.661 226.173 202.112 228.289 206.446 228.398C209.674 228.479 210.762 227.661 210.762 227.661L210.101 223.821L209.452 220.077L201.565 218.762L200.242 218.54Z" fill="#F48462"/>
<path d="M201.564 218.762C201.595 218.97 201.685 219.211 201.819 219.486C203.679 223.202 208.235 223.758 210.1 223.821L209.451 220.077L201.564 218.762Z" fill="black"/>
<path d="M210.14 202.583C210.14 202.583 214.536 211.925 213.303 217.332C212.069 222.739 207.331 222.099 204.475 221.186C201.619 220.273 200.241 218.542 200.241 218.542C200.241 218.542 197.648 219.577 195.788 217.122C193.929 214.666 194.895 211.713 196.37 210.983C197.845 210.253 199.675 211.298 199.675 211.298L198.166 208.593C198.166 208.593 203.492 194.29 210.14 202.583Z" fill="#F48462"/>
<path d="M199.611 215.397C199.564 215.397 199.516 215.384 199.474 215.355L196.016 213.078C195.896 212.999 195.86 212.835 195.937 212.711C196.015 212.587 196.172 212.552 196.291 212.63L199.749 214.907C199.869 214.986 199.905 215.15 199.828 215.274C199.779 215.353 199.696 215.397 199.611 215.397Z" fill="black"/>
<path d="M196.582 215.533C196.474 215.533 196.372 215.461 196.337 215.347C196.294 215.208 196.369 215.058 196.504 215.013L198.66 214.301C198.795 214.258 198.939 214.334 198.983 214.474C199.026 214.614 198.951 214.764 198.816 214.809L196.66 215.52C196.635 215.528 196.608 215.533 196.582 215.533Z" fill="black"/>
<path d="M204.169 206.934C204.119 206.934 204.068 206.919 204.024 206.888C203.907 206.805 203.877 206.639 203.957 206.518C205.096 204.797 206.75 205.574 206.767 205.582C206.895 205.644 206.95 205.801 206.89 205.934C206.831 206.067 206.677 206.126 206.549 206.064C206.497 206.039 205.269 205.477 204.381 206.819C204.331 206.894 204.25 206.934 204.169 206.934Z" fill="black"/>
<path d="M211.302 206.155C211.249 206.155 211.196 206.138 211.15 206.103C210.306 205.461 209.481 206.02 209.472 206.026C209.355 206.108 209.195 206.075 209.116 205.953C209.037 205.831 209.069 205.666 209.186 205.584C209.232 205.552 210.326 204.816 211.454 205.674C211.568 205.761 211.593 205.927 211.509 206.046C211.459 206.117 211.381 206.155 211.302 206.155Z" fill="black"/>
<path d="M209.975 214.769C209.956 214.769 209.936 214.767 209.916 214.762C209.778 214.728 209.693 214.584 209.725 214.441C210.377 211.595 208.837 209.655 208.822 209.636C208.731 209.523 208.745 209.356 208.854 209.261C208.961 209.167 209.123 209.181 209.216 209.294C209.286 209.381 210.936 211.46 210.225 214.564C210.197 214.686 210.092 214.769 209.975 214.769Z" fill="black"/>
<path d="M211.469 209.824C211.362 209.824 211.262 209.753 211.226 209.642L210.668 207.919C210.622 207.78 210.695 207.629 210.83 207.582C210.964 207.533 211.109 207.61 211.155 207.75L211.713 209.473C211.758 209.612 211.686 209.763 211.551 209.81C211.524 209.819 211.496 209.824 211.469 209.824Z" fill="black"/>
<path d="M206.809 210.193C206.701 210.193 206.601 210.123 206.565 210.011L206.008 208.288C205.962 208.149 206.035 207.998 206.17 207.951C206.304 207.903 206.45 207.98 206.495 208.119L207.052 209.843C207.098 209.982 207.025 210.132 206.89 210.179C206.863 210.189 206.836 210.193 206.809 210.193Z" fill="black"/>
<path d="M211.035 204.694C211.035 204.694 210.15 203.206 208.31 203.302C206.47 203.397 205.47 204.801 205.47 204.801C205.47 204.801 206.453 207.96 204.045 209.81C201.637 211.661 199.676 211.298 199.676 211.298L197.824 210.736L196.343 208.07L201.27 201.906L207.859 197.795L211.5 200.844L211.035 204.694Z" fill="black"/>
<path d="M200.731 225.801C200.731 225.801 188.141 224.332 181.173 237.145C175.258 248.023 175.551 257.902 175.551 257.902L195.159 254.963L200.731 225.801Z" fill="#0D1317"/>
<path d="M175.552 257.902C175.552 257.902 175.932 273.602 188.14 271.765C202.002 269.679 207.514 241.016 207.514 241.016L211.649 238.289C211.649 238.289 210.855 241.789 214.17 239.906C217.484 238.023 216.821 234.493 216.821 234.493L212.945 227.378C212.945 227.378 218.666 221.681 216.975 221.394C214.363 220.95 206.227 226.775 206.227 226.775C206.227 226.775 206.674 223.264 204.781 223.845C202.739 224.472 202.017 230.945 202.017 230.945L180.279 256.695L175.552 257.902Z" fill="#F48462"/>
<path d="M211.649 238.555C211.575 238.555 211.504 238.522 211.454 238.462C211.378 238.371 211.371 238.238 211.436 238.138L212.953 235.849C213.034 235.727 213.193 235.696 213.31 235.78C213.427 235.863 213.457 236.028 213.377 236.15L212.409 237.611L213.812 236.906C213.94 236.841 214.093 236.896 214.155 237.029C214.217 237.161 214.164 237.32 214.037 237.384L211.761 238.528C211.725 238.546 211.687 238.555 211.649 238.555Z" fill="black"/>
<path d="M211.469 228.712C211.388 228.712 211.309 228.672 211.258 228.598C211.177 228.478 211.206 228.312 211.322 228.227L212.797 227.16C212.913 227.075 213.073 227.106 213.155 227.226C213.237 227.346 213.208 227.512 213.092 227.597L211.616 228.664C211.571 228.697 211.52 228.712 211.469 228.712Z" fill="black"/>
<path d="M200.793 231.105L209.722 242.688C209.722 242.688 206.282 264.984 195.562 271.914C184.841 278.844 174.839 268.979 175.551 257.902C176.263 246.825 200.793 231.105 200.793 231.105Z" fill="#0D1317"/>
<path d="M208.557 217.227C208.517 217.227 208.476 217.217 208.438 217.197L206.689 216.251C206.563 216.183 206.514 216.022 206.58 215.892C206.646 215.761 206.8 215.711 206.927 215.779L208.677 216.725C208.802 216.793 208.851 216.954 208.785 217.084C208.739 217.175 208.65 217.227 208.557 217.227Z" fill="black"/>
<path d="M206.228 227.041C206.168 227.041 206.108 227.019 206.06 226.977C205.974 226.9 205.947 226.774 205.993 226.666C206.001 226.647 206.81 224.715 205.607 223.397C205.415 223.186 205.271 223.191 205.178 223.213C204.46 223.381 203.572 225.428 203.181 226.678C203.138 226.817 202.992 226.892 202.858 226.849C202.722 226.804 202.649 226.655 202.692 226.514C202.805 226.154 203.828 222.984 205.065 222.694C205.294 222.642 205.638 222.656 205.98 223.031C206.925 224.066 206.856 225.36 206.684 226.154L209.208 224.473C209.326 224.397 209.486 224.43 209.563 224.553C209.64 224.676 209.605 224.841 209.485 224.921L206.366 226.998C206.324 227.027 206.276 227.041 206.228 227.041Z" fill="black"/>
<path d="M193.002 241.626C193.002 241.626 188.103 241.545 185.834 242.529C183.565 243.512 179.356 249.597 180.045 250.499C180.734 251.401 182.25 250.499 182.25 250.499C182.25 250.499 181.423 252.721 183.353 252.663C185.283 252.604 193.002 241.626 193.002 241.626Z" fill="#F48462"/>
<path d="M231.075 250.521C231.032 250.521 230.988 250.51 230.948 250.486C224.682 246.782 209.879 246.268 209.73 246.264C209.588 246.26 209.476 246.136 209.481 245.989C209.485 245.842 209.591 245.727 209.745 245.732C210.358 245.751 224.826 246.254 231.203 250.023C231.326 250.097 231.369 250.259 231.298 250.387C231.251 250.472 231.164 250.521 231.075 250.521Z" fill="#0072BB"/>
<path d="M229.726 270.996C229.56 270.982 215.357 269.596 203.513 263.969C203.384 263.908 203.328 263.751 203.387 263.616C203.446 263.482 203.6 263.423 203.727 263.487C215.49 269.074 229.607 270.452 229.748 270.465C229.89 270.478 229.994 270.607 229.981 270.754C229.969 270.892 229.857 270.996 229.726 270.996Z" fill="#0072BB"/>
<path d="M209.722 242.955C209.645 242.955 209.568 242.918 209.517 242.85L200.789 230.963L195.079 238.453C194.99 238.57 194.829 238.589 194.718 238.498C194.606 238.407 194.588 238.239 194.675 238.124L200.591 230.364C200.64 230.3 200.715 230.263 200.793 230.263C200.869 230.289 200.949 230.303 200.998 230.368L209.927 242.527C210.013 242.644 209.991 242.812 209.878 242.901C209.831 242.937 209.777 242.955 209.722 242.955Z" fill="#0072BB"/>
<path d="M223.36 247.393C221.826 247.393 220.2 247.252 219.426 247.176C219.311 247.164 219.218 247.076 219.197 246.959C219.177 246.843 219.234 246.726 219.336 246.673C219.557 246.559 224.753 243.923 226.575 245.81C226.93 246.177 226.906 246.47 226.824 246.65C226.559 247.23 225.012 247.393 223.36 247.393ZM220.459 246.732C223.302 246.948 226.147 246.888 226.359 246.423C226.364 246.411 226.355 246.335 226.211 246.186C225.132 245.068 222.217 245.98 220.459 246.732Z" fill="#0072BB"/>
<path d="M202.638 227.878C200.84 227.631 200.483 225.871 200.48 225.853C200.452 225.709 200.542 225.57 200.681 225.541C200.825 225.516 200.955 225.606 200.983 225.748C200.995 225.806 201.278 227.155 202.672 227.348C202.812 227.368 202.911 227.502 202.892 227.648C202.875 227.78 202.765 227.878 202.638 227.878Z" fill="#0072BB"/>
<path d="M182.116 250.898C182.056 250.898 181.996 250.877 181.947 250.833C181.84 250.736 181.829 250.568 181.923 250.457L186.158 245.444C186.251 245.335 186.413 245.323 186.521 245.419C186.627 245.516 186.639 245.684 186.545 245.795L182.309 250.808C182.259 250.867 182.188 250.898 182.116 250.898Z" fill="black"/>
<path d="M587.459 129.223C588.938 129.223 590.137 127.982 590.137 126.451C590.137 124.92 588.938 123.679 587.459 123.679C585.98 123.679 584.781 124.92 584.781 126.451C584.781 127.982 585.98 129.223 587.459 129.223Z" fill="#1C1B1F"/>
<path d="M596.941 129.223C598.42 129.223 599.619 127.982 599.619 126.451C599.619 124.92 598.42 123.679 596.941 123.679C595.463 123.679 594.264 124.92 594.264 126.451C594.264 127.982 595.463 129.223 596.941 129.223Z" fill="#1C1B1F"/>
<path d="M606.424 129.223C607.903 129.223 609.101 127.982 609.101 126.451C609.101 124.92 607.903 123.679 606.424 123.679C604.945 123.679 603.746 124.92 603.746 126.451C603.746 127.982 604.945 129.223 606.424 129.223Z" fill="#1C1B1F"/>
<path d="M359.069 326.794L358.329 335.319H342.508V325.664L359.069 326.794Z" fill="#FFA98F"/>
<path d="M330.849 330.733L329.251 339.282L311.838 335.007L314.88 325.664L330.849 330.733Z" fill="#FFA98F"/>
<path d="M311.476 214.039C311.476 214.039 307.322 210.094 301.408 213.314C295.495 216.534 296.231 225.701 296.231 225.701C296.231 225.701 290.014 227.98 289.504 235.853C288.994 243.727 297.722 246.789 297.722 246.789L312.585 244.366C312.585 244.366 315.552 239.788 315.53 239.619C315.509 239.449 316.119 220.486 316.119 220.486L311.476 214.039Z" fill="black"/>
<path d="M340.541 277.212C340.541 277.212 337.91 247.259 327.188 242.66C313.137 236.633 299.643 242.805 299.643 242.805L300.407 282.237L340.541 277.212Z" fill="#044066"/>
<path d="M333.964 277.006C333.964 277.006 356.844 271.243 363.118 281.25C369.391 291.256 360.618 329.444 360.618 329.444H339.55L333.964 277.006Z" fill="#0072BB"/>
<path d="M282.169 285.683C282.169 285.683 277.405 308.595 286.952 312.284C296.499 315.974 318.507 311.599 318.507 311.599L309.578 327.908L338.295 336.714C338.295 336.714 362.142 292.144 347.627 280.265C333.113 268.386 302.562 285.683 302.562 285.683H282.169Z" fill="#0072BB"/>
<path d="M359.552 330.733C359.552 330.733 365.027 337.421 366.3 338.055C367.573 338.69 380.849 343.318 383.394 345.898C385.94 348.478 386.122 353.549 385.395 354.025C384.667 354.502 340.999 354.025 340.999 354.025L340.541 332.23L359.552 330.733Z" fill="#0D1317"/>
<path d="M331.864 335.685C331.864 335.685 334.093 344.646 335.889 345.588C337.685 346.531 345.412 351.549 349.61 356.106C353.13 359.927 349.61 362.121 349.61 362.121H325.281L304.366 346.218L311.838 329.676L331.864 335.685Z" fill="#0D1317"/>
<path d="M313.268 233.756L312.299 240.178C312.299 240.178 313.285 242.262 317.342 243.34C320.364 244.144 321.534 243.713 321.534 243.713L321.598 240.381L321.657 237.131L314.473 234.242L313.268 233.756Z" fill="#F48462"/>
<path d="M314.468 234.261C314.453 234.463 314.488 234.711 314.557 235C315.535 238.914 319.71 240.456 321.454 240.931L321.623 237.26L314.468 234.261Z" fill="black"/>
<path d="M325.916 220.936C325.916 220.936 328.11 230.717 325.821 235.534C323.533 240.351 319.203 238.691 316.703 237.193C314.203 235.696 313.266 233.758 313.266 233.758C313.266 233.758 310.609 234.154 309.369 231.426C308.129 228.698 309.655 226.133 311.196 225.774C312.737 225.415 314.243 226.809 314.243 226.809L313.385 223.924C313.385 223.924 321.382 211.642 325.916 220.936Z" fill="#F48462"/>
<path d="M323.502 232.324C323.462 232.324 323.421 232.314 323.384 232.294C323.261 232.226 323.215 232.069 323.28 231.942C324.093 230.368 323.222 228.312 323.212 228.291C323.156 228.16 323.212 228.007 323.339 227.948C323.464 227.891 323.612 227.948 323.67 228.079C323.711 228.172 324.653 230.385 323.723 232.187C323.677 232.274 323.591 232.324 323.502 232.324Z" fill="black"/>
<path d="M313.137 230.944C313.055 230.944 312.973 230.902 312.926 230.824L311.039 227.75C310.965 227.629 310.999 227.469 311.116 227.391C311.232 227.316 311.389 227.35 311.462 227.471L313.349 230.545C313.423 230.666 313.389 230.826 313.272 230.904C313.23 230.931 313.183 230.944 313.137 230.944Z" fill="black"/>
<path d="M312.444 229.816C312.434 229.816 310.746 229.746 310.746 229.746C310.608 229.739 310.5 229.619 310.506 229.475C310.511 229.333 310.626 229.223 310.766 229.227L312.454 229.297C312.592 229.303 312.7 229.424 312.694 229.567C312.689 229.707 312.578 229.816 312.444 229.816Z" fill="black"/>
<path d="M320.512 234.579C320.179 234.579 319.828 234.488 319.502 234.23C318.501 233.436 318.369 232.106 318.363 232.049C318.355 231.953 318.398 231.86 318.476 231.807C318.554 231.754 318.654 231.749 318.735 231.798L321.93 233.653C322.006 233.696 322.054 233.777 322.058 233.867C322.062 233.956 322.021 234.041 321.95 234.092C321.911 234.12 321.26 234.579 320.512 234.579ZM318.982 232.536C319.104 232.928 319.344 233.452 319.807 233.819C320.292 234.203 320.899 234.045 321.285 233.874L318.982 232.536Z" fill="black"/>
<path d="M319.262 224.635C319.207 224.635 319.153 224.617 319.107 224.58C318.998 224.492 318.978 224.328 319.064 224.216C319.862 223.162 321.239 223.758 321.297 223.782C321.425 223.838 321.483 223.991 321.43 224.123C321.375 224.254 321.23 224.316 321.101 224.26C321.057 224.241 320.018 223.797 319.459 224.536C319.409 224.601 319.336 224.635 319.262 224.635Z" fill="black"/>
<path d="M326.178 224.937C326.103 224.937 326.029 224.903 325.979 224.837C325.975 224.83 325.509 224.217 324.976 224.18C324.751 224.165 324.545 224.257 324.346 224.461C324.247 224.564 324.088 224.561 323.992 224.46C323.894 224.359 323.895 224.194 323.993 224.094C324.298 223.782 324.632 223.639 325.012 223.663C325.771 223.716 326.353 224.486 326.377 224.52C326.461 224.633 326.44 224.795 326.332 224.883C326.285 224.919 326.231 224.937 326.178 224.937Z" fill="black"/>
<path d="M325.077 228.727C324.928 228.72 324.82 228.599 324.826 228.455L324.901 226.729C324.904 226.657 324.936 226.59 324.989 226.543L325.756 225.874C325.861 225.782 326.022 225.795 326.109 225.904C326.199 226.014 326.186 226.178 326.08 226.27L325.397 226.867L325.328 228.479C325.322 228.618 325.211 228.727 325.077 228.727Z" fill="black"/>
<path d="M320.175 228.164C320.02 228.155 319.916 228.031 319.925 227.889L320.032 226.165C320.036 226.084 320.078 226.01 320.143 225.965L321.222 225.22C321.337 225.143 321.492 225.174 321.57 225.293C321.646 225.412 321.615 225.573 321.5 225.653L320.524 226.326L320.425 227.921C320.417 228.058 320.307 228.164 320.175 228.164Z" fill="black"/>
<path d="M314.575 226.737C314.575 226.737 318.979 226.129 320.858 223.088C322.737 220.047 322.635 218.596 322.635 218.596C322.635 218.596 324.808 219.903 325.577 221.604C326.347 223.305 326.479 224.21 326.479 224.21C326.479 224.21 327.208 220.554 326.834 219.435C326.46 218.315 324.407 212.042 315.955 212.808C303.138 213.97 308.352 224.739 314.575 226.737Z" fill="black"/>
<path d="M313.036 268.042C313.036 268.042 313.426 267.865 315.081 267.252C316.649 266.671 322.303 267.116 322.303 267.116C322.303 267.116 327.221 267.867 331.318 269.541C335.415 271.215 334.858 273.126 334.858 273.126C334.858 273.126 337.496 274.561 336.52 275.766C335.544 276.971 331.347 276.237 331.347 276.237C331.347 276.237 336.693 277.797 334.654 279.192C332.616 280.587 325.802 278.316 325.802 278.316C325.802 278.316 315.701 283.147 311.998 279.762C308.295 276.378 313.036 268.042 313.036 268.042Z" fill="#F48462"/>
<path d="M315.1 265.452L319.207 281.952C319.207 281.952 292.464 303.071 281.293 286.512C270.122 269.953 290.904 245.137 299.642 242.805C308.381 240.473 303.966 267.144 303.966 267.144L315.1 265.452Z" fill="#044066"/>
<path d="M318.507 311.859C318.455 311.859 318.403 311.841 318.358 311.808C318.278 311.745 318.24 311.639 318.264 311.537C318.329 311.263 319.886 304.815 322.443 303.668C323.058 303.392 323.679 303.433 324.293 303.791C324.875 304.131 325.174 304.594 325.181 305.167C325.214 307.722 318.905 311.655 318.636 311.822C318.596 311.847 318.551 311.859 318.507 311.859ZM323.247 304.008C323.045 304.008 322.845 304.053 322.642 304.144C320.749 304.993 319.374 309.382 318.916 311.033C320.922 309.715 324.701 306.879 324.679 305.174C324.674 304.793 324.467 304.489 324.046 304.243C323.777 304.087 323.511 304.008 323.247 304.008Z" fill="#0D1317"/>
<path d="M337.662 278.875H371.915L380.646 258.434C381.141 257.275 380.321 255.971 379.096 255.971H347.445L337.662 278.875Z" fill="#0D1317"/>
<path d="M323.204 281.769H371.565C372.337 281.769 372.963 281.121 372.963 280.322C372.963 279.523 372.337 278.875 371.565 278.875H323.204C322.432 278.875 321.807 279.523 321.807 280.322C321.807 281.121 322.432 281.769 323.204 281.769Z" fill="#1F2528"/>
<path d="M334.859 273.386C334.816 273.386 334.773 273.375 334.733 273.351C334.699 273.331 331.213 271.264 326.795 269.964C326.662 269.925 326.585 269.781 326.623 269.643C326.66 269.505 326.799 269.426 326.933 269.464C331.413 270.782 334.948 272.881 334.984 272.901C335.104 272.973 335.145 273.132 335.076 273.256C335.029 273.339 334.945 273.386 334.859 273.386Z" fill="black"/>
<path d="M331.852 276.358C331.804 276.358 331.756 276.344 331.713 276.315C331.684 276.294 328.772 274.303 326.156 274.071C326.019 274.059 325.917 273.932 325.929 273.789C325.94 273.647 326.064 273.53 326.2 273.554C328.945 273.798 331.868 275.798 331.991 275.882C332.106 275.962 332.137 276.123 332.061 276.242C332.012 276.317 331.932 276.358 331.852 276.358Z" fill="black"/>
<path d="M438.979 166.208C438.988 163.981 437.149 162.46 434.188 162.448C431.344 162.437 429.263 163.542 427.911 165.487L424.191 162.964C426.356 159.949 429.822 158.134 434.628 158.154C440.278 158.177 444.035 160.858 444.017 165.434C443.992 171.92 437.417 172.489 437.399 177.185L432.518 177.165C432.54 171.275 438.964 170.187 438.979 166.208ZM431.878 183.568C431.884 181.857 433.157 180.509 434.965 180.517C436.733 180.524 437.996 181.882 437.989 183.593C437.982 185.303 436.709 186.691 434.941 186.684C433.133 186.676 431.871 185.278 431.878 183.568Z" fill="#CACACA"/>
</svg>
